<svg width="20" height="15" fill="none" xmlns="http://www.w3.org/2000/svg"><g clip-path="url(#clip0)"><path fill-rule="evenodd" clip-rule="evenodd" d="M0-.16h20v15H0v-15z" fill="#6FDCFF"/><path fill-rule="evenodd" clip-rule="evenodd" d="M1.88 14.6c.1.1.07.26.35.24.44 0 .45-.27.45-.45s-.65-.44-.68-.71c-.03-.27.15-.35.3-.35s.25.09.25.16c0 .08-.07.1-.17.1-.11 0 .04-.05-.05-.09-.09-.04-.15.06-.15.13 0 .06.23.08.38.04.03.14.04.15-.17.4.15-.1.16-.12.33-.06-.17-.14-.04-.43-.04-.5a.25.25 0 00-.1-.2c-.11-.12-.37-.12-.53-.05-.23.1-.24.4-.18.5l.63.64c.04.07.06.28-.2.3-.29.02-.39-.37-.44-.5-.06.14-.14.53-.42.5-.27 0-.32-.21-.28-.3l.65-.65c.06-.1.05-.4-.18-.5-.15-.07-.41-.06-.53.05a.23.23 0 00-.1.2c0 .07.13.36-.04.5.17-.05.18-.03.33.06-.2-.24-.2-.25-.16-.4.15.05.37.03.37-.04 0-.06-.06-.17-.15-.13-.1.04.06.1-.05.1-.1 0-.17-.02-.17-.1 0-.07.1-.16.25-.16s.33.07.3.35c-.04.27-.7.56-.7.75 0 .18.05.4.48.4.28.03.32-.14.42-.24z" fill="#FFE400"/><path fill-rule="evenodd" clip-rule="evenodd" d="M1.85 10.73c.1-.1.18-.4.47-.38.43 0 .59.24.59.43 0 .18-.88 1.69-.9 1.96-.04.27.14.34.29.34.15 0 .25-.08.25-.16s-.07-.1-.18-.1c-.1 0 .05.06-.04.1-.09.04-.15-.06-.15-.13 0-.06.23-.08.38-.03.02-.15.04-.16-.17-.41.15.1.16.12.33.06-.17.15-.05.43-.04.5 0 .07-.03.16-.1.2-.11.12-.38.12-.53.05-.23-.1-.24-.4-.18-.5l.85-1.83c.05-.07-.07-.32-.34-.33-.28-.03-.38.27-.43.4l.38-.03s.02.06 0 .1c-.12 0-.25.02-.38.05l-.02.2h.2l-.02.08h-.18l-.03.2h-.12s-.01-.2-.03-.2h-.18l-.01-.09h.19l-.02-.2s-.18-.03-.38-.04v-.1l.38.03c-.05-.13-.14-.43-.42-.4-.27 0-.4.26-.35.33l.85 1.83c.06.1.05.4-.18.5-.15.07-.41.06-.53-.04a.23.23 0 01-.1-.2c0-.08.12-.37-.04-.5.17.05.18.03.33-.07-.2.25-.2.26-.16.4.14-.04.37-.03.37.04s-.06.18-.15.13c-.09-.04.06-.1-.04-.1s-.18.03-.18.1c0 .08.1.16.25.16.14 0 .33-.07.3-.34-.03-.27-.9-1.78-.9-1.96 0-.19.15-.42.59-.42.28-.03.38.27.48.37z" fill="#FFE400"/><path fill-rule="evenodd" clip-rule="evenodd" d="M1.85 9.98c.1.1.18.4.47.38.43 0 .59-.24.59-.43 0-.18-.88-1.69-.9-1.96-.04-.27.14-.34.29-.34.15 0 .25.08.25.16s-.07.1-.18.1c-.1 0 .05-.06-.04-.1-.09-.05-.15.06-.15.13 0 .06.23.08.38.03.02.15.04.16-.17.4.15-.08.16-.1.33-.05-.17-.15-.05-.43-.04-.5a.24.24 0 00-.1-.2c-.11-.12-.38-.12-.53-.05-.23.1-.24.4-.18.5l.85 1.83c.05.07-.07.32-.34.33-.28.02-.38-.28-.43-.4l.38.03s.02-.06 0-.1l-.38-.05-.02-.2h.2l-.02-.08h-.18l-.03-.2-.06-.01-.06.01s-.01.19-.03.2h-.18l-.01.08h.19l-.02.2s-.18.04-.38.05v.1l.38-.03c-.05.12-.14.42-.42.4-.27-.01-.4-.26-.35-.33l.85-1.83c.06-.1.05-.4-.18-.5-.15-.07-.41-.07-.53.04a.23.23 0 00-.1.2c0 .08.12.36-.04.5.17-.05.18-.03.33.07-.2-.25-.2-.26-.16-.4.14.04.37.02.37-.04 0-.07-.06-.18-.15-.13-.09.04.06.1-.04.1s-.18-.03-.18-.1c0-.08.1-.16.25-.16.14 0 .33.07.3.34-.03.27-.9 1.78-.9 1.96 0 .19.15.42.59.42.28.03.38-.27.48-.37z" fill="#FFE400"/><path fill-rule="evenodd" clip-rule="evenodd" d="M1.85 5.02c.1-.1.18-.4.47-.38.43 0 .59.24.59.43 0 .18-.88 1.69-.9 1.96-.04.27.14.34.29.34.15 0 .25-.08.25-.15 0-.08-.07-.1-.18-.1-.1 0 .05.05-.04.1-.09.04-.15-.07-.15-.14 0-.06.23-.08.38-.03.02-.15.04-.16-.17-.4.15.09.16.1.33.05-.17.15-.05.43-.04.5 0 .07-.03.17-.1.2-.11.12-.38.12-.53.05-.23-.1-.24-.4-.18-.5l.85-1.82c.05-.08-.07-.33-.34-.34-.28-.02-.38.28-.43.4l.38-.03s.02.07 0 .1l-.38.05-.02.2h.2l-.02.08h-.18l-.03.2-.06.01h-.06s-.01-.2-.03-.2c-.02-.02-.18 0-.18 0l-.01-.1h.19l-.02-.19-.38-.05v-.1l.38.03c-.05-.12-.14-.42-.42-.4-.27.01-.4.26-.35.34l.85 1.82c.06.1.05.4-.18.5-.15.07-.41.07-.53-.04a.23.23 0 01-.1-.2c0-.08.12-.36-.04-.5.17.05.18.03.33-.07-.2.25-.2.26-.16.4.14-.04.37-.02.37.04 0 .07-.06.18-.15.13-.09-.04.06-.1-.04-.1s-.18.03-.18.1c0 .08.1.17.25.17.14 0 .33-.08.3-.35-.03-.27-.9-1.78-.9-1.96 0-.19.15-.42.59-.42.28-.02.38.27.48.37z" fill="#FFE400"/><path fill-rule="evenodd" clip-rule="evenodd" d="M1.85 4.27c.1.1.18.4.47.38.43 0 .59-.24.59-.43 0-.18-.88-1.69-.9-1.96-.04-.27.14-.34.29-.34.15 0 .25.08.25.16 0 .07-.07.1-.18.1-.1 0 .05-.06-.04-.1-.09-.05-.15.06-.15.13 0 .06.23.08.38.03.02.15.04.16-.17.41.15-.1.16-.12.33-.06-.17-.14-.05-.43-.04-.5a.24.24 0 00-.1-.2c-.11-.11-.38-.12-.53-.05-.23.1-.24.4-.18.5l.85 1.83c.05.07-.07.32-.34.34-.28.02-.38-.28-.43-.41l.38.03s.02-.06 0-.1c-.12 0-.25-.02-.38-.05l-.02-.2h.2L2.1 3.7h-.18l-.03-.2h-.12s-.01.2-.03.2h-.18l-.01.09h.19l-.02.2s-.18.03-.38.04v.1l.38-.03c-.05.13-.14.43-.42.4-.27 0-.4-.26-.35-.33l.85-1.83c.06-.1.05-.4-.18-.5-.15-.07-.41-.07-.53.04a.23.23 0 00-.1.2c0 .08.12.37-.04.5.17-.05.18-.03.33.07-.2-.25-.2-.26-.16-.4.15.04.37.02.37-.04 0-.07-.06-.18-.15-.13-.09.04.06.1-.04.1s-.18-.03-.18-.1c0-.08.1-.16.25-.16.14 0 .33.07.3.34-.03.27-.9 1.78-.9 1.96 0 .19.15.43.59.43.28.02.38-.28.48-.38z" fill="#FFE400"/><path fill-rule="evenodd" clip-rule="evenodd" d="M1.88.4c.1-.1.07-.26.35-.24.44 0 .45.27.45.45s-.65.44-.68.71c-.03.27.15.35.3.35s.25-.09.25-.16c0-.08-.07-.1-.17-.1-.11 0 .04.05-.05.09-.09.04-.15-.06-.15-.12 0-.07.23-.1.38-.05.03-.14.04-.15-.17-.4.15.1.16.12.33.06-.17.14-.04.43-.04.5 0 .08-.03.16-.1.2-.12.12-.38.12-.53.05-.23-.1-.24-.4-.18-.5L2.5.6c.04-.07.06-.28-.2-.3C2 .29 1.9.68 1.85.8 1.8.66 1.72.27 1.44.3c-.27 0-.32.2-.28.29l.65.65c.06.1.05.4-.18.5-.15.08-.41.07-.53-.04a.23.23 0 01-.1-.2c0-.08.13-.36-.04-.5.17.05.18.03.33-.07-.2.25-.2.26-.16.41.15-.05.37-.03.37.04 0 .06-.06.17-.15.13-.1-.05.06-.1-.05-.1-.1 0-.17.02-.17.1 0 .07.1.16.25.16s.33-.08.3-.35C1.64 1.05.98.76.98.57c0-.19.05-.4.48-.4.28-.03.32.14.42.24z" fill="#FFE400"/><path d="M13.04 6.35c0-1.17-1-2.12-2.24-2.12-1.24 0-2.24.95-2.24 2.12 0 1.18 1 2.13 2.24 2.13 1.23 0 2.24-.95 2.24-2.13z" fill="#FFE400"/><path fill-rule="evenodd" clip-rule="evenodd" d="M10.7 2.97c-.03 0-.13.7-.17.86-.03.35.48.34.4-.01l-.24-.86zm.17 6.83c.02 0 .17-.7.22-.85.06-.35-.45-.37-.4-.01l.18.86zM7.3 6.34c0 .02.74.16.9.21.37.06.4-.42.02-.37l-.92.16zm7.15.08c0-.02-.74-.14-.9-.18-.38-.04-.38.44 0 .37l.9-.19zM8.05 4.1c0 .02.48.56.57.7.26.26.6-.1.26-.29l-.82-.4zm5.56 4.5c.01-.01-.52-.52-.63-.64-.28-.24-.57.15-.23.3l.86.34zM9.16 3.34l.25.85c.13.33.58.11.35-.17l-.6-.68zm3.24 6.11c.02 0-.16-.7-.18-.86-.1-.34-.57-.15-.36.15l.54.71zm.8-5.64c-.02 0-.6.44-.74.53-.28.24.1.56.3.24l.44-.77zm-4.81 5.1l.77-.48c.3-.21-.05-.56-.27-.26l-.5.74zm-.93-3.8c0 .02.64.4.78.5.32.16.52-.28.14-.35l-.92-.14zm6.68 2.6c0-.02-.6-.43-.74-.54-.31-.2-.54.24-.17.34l.9.2zm-2.12-4.55c-.02 0-.39.61-.48.75a.2.2 0 00.36.12l.12-.87zM9.55 9.59c.02 0 .43-.6.53-.72.2-.3-.27-.5-.36-.15l-.17.87zM7.5 7.76c0 .02.74-.16.9-.18.36-.1.16-.54-.15-.34l-.75.52zm6.63-2.7l-.92.12c-.36.08-.2.54.14.35l.78-.47z" fill="#FFE400"/><path fill-rule="evenodd" clip-rule="evenodd" d="M11.42 3.01c-.02 0-.27.67-.34.82-.1.34.4.42.39.06l-.05-.88zm-1.28 6.73c.02 0 .32-.65.4-.8.13-.32-.36-.44-.38-.08l-.02.88zM9.9 3.08c-.02 0 .05.71.05.88.05.35.54.22.38-.1l-.43-.78zm1.79 6.62v-.88c-.01-.35-.52-.26-.38.08l.37.8zM8.62 3.67c-.02 0 .33.64.4.79.19.3.6.01.3-.23l-.7-.56zm4.33 5.47c.02-.02-.29-.67-.34-.82-.16-.32-.59-.06-.32.2l.66.62zM7.7 4.55c0 .02.56.48.68.6.29.23.56-.18.2-.31l-.88-.29zm6.16 3.68c.01-.02-.51-.53-.63-.65-.27-.24-.57.15-.22.3l.85.35zM7.3 5.65c0 .02.69.29.84.36.36.12.47-.35.08-.36H7.3zm7.03 1.52c.01-.01-.67-.32-.81-.41-.35-.14-.5.32-.11.36l.92.05zm-7.06-.16c0 .01.76 0 .93.02.37-.02.28-.5-.07-.37l-.86.35zm7.11-1.19c0-.01-.75-.05-.92-.08-.38 0-.32.48.05.37l.87-.29zm-6.46 2.6l.84-.37c.33-.17.03-.57-.23-.3l-.61.66zm5.85-4.01c-.01-.02-.7.26-.87.3-.34.16-.07.57.2.32l.67-.62zM9 9.34c.02.01.5-.54.62-.65.23-.28-.2-.53-.34-.19L9 9.34zm3.68-5.88c-.02-.01-.54.5-.67.6-.24.27.18.55.33.21l.34-.81z" fill="#FFE400"/><path fill-rule="evenodd" clip-rule="evenodd" d="M7.37 7.76c.04.14.05.9.86 1.63.8.73 2.18.9 2.18.9s0 .1-.1.1c-.09.01-.56-.08-.8-.15-.22-.07-.43-.19-.45-.18-.03.01-.08.09-.15.08-.07-.02-.4-.34-.55-.43-.3-.24-.56-.52-.78-.83-.17-.24-.2-.4-.26-.4-.05 0-.24.11-.24.11s-.17-.24-.32-.63c-.15-.4-.14-.62-.1-.63.04-.02.04.28.15.56.12.28.28.37.28.37s-.1-.15-.19-.51c-.08-.37-.11-.72-.05-.83.05-.1.1-.14.11-.13.01 0-.1.17-.02.58.07.42.27.77.32.76.05-.02-.03-.1-.06-.35-.03-.24.03-.4.1-.42.02-.02.07.27.07.4zm-.56.7c-.15-.14-.4-.6-.45-.59-.05.03.4.7.4.76.02.07.12.25.04.23-.07-.03-.6-.56-.54-.46.06.1.46.57.44.6-.03.02-.34-.26-.35-.23 0 .04.3.32.3.35 0 .03-.2-.18-.2-.13 0 .04.2.25.2.28 0 .04-.17-.15-.11-.05.05.1.2.2.2.23-.01.03-.13-.04-.13-.02 0 .01.22.09.27.15.06.06.43.46.7.66.28.2 1.07.55 1.13.55.05 0 .13-.1.11-.15-.02-.04-.8-.3-1-.48-.22-.18-.75-.63-.8-.65-.04-.03-.16-.01-.16-.04s.16.01.15 0c0-.02-.22-.1-.2-.12 0-.02.13.03.13.02 0-.02-.24-.15-.23-.17.01-.03.18.07.18.05 0 0-.23-.16-.22-.19 0-.03.18.12.17.09 0-.03-.14-.22-.14-.24 0-.03.21.18.23.14.01-.04-.07-.39-.07-.4 0 0 .16.08.18.03.03-.05-.1-.12-.23-.22zm2.65 2.67c-.11.02-.16-.02-.1-.11.09 0 .32-.07.4-.1a.85.85 0 00.23-.14c.07-.07.12.04.08.1a.85.85 0 01-.26.15c-.14.04-.27.1-.35.1zm.72-.28c-.08-.07-.02-.13.1-.19.15-.08.1-.2.32-.29.09-.05 1.37-.54 1.8-.8.41-.26 1.59-1.1 1.9-1.68.31-.58.16-.62.21-.64.04-.03.09.08.08.21-.01.13-.11.5-.08.54.03.04.47-.3.65-.7.19-.4.33-.83.41-.83.1 0-.15.7-.3.96-.15.27-.33.41-.29.47.05.05.5-.3.65-.56.15-.26.3-.5.32-.45a1.8 1.8 0 01-.38.87c-.24.27-.53.46-.49.5.04.04.37.08.71-.14.34-.22.38-.54.42-.52.05.01-.04.45-.37.72-.33.27-.76.3-.74.36.02.06.93-.25.91-.18-.01.07-1.18.5-1.19.55 0 .03.2.04.52-.03.3-.07.6-.3.65-.25 0 .08-.23.26-.58.35-.37.09-.54.2-.56.23 0 .03.65-.08.65-.04 0 .03-.85.19-.86.23-.01.04.8-.16.8-.11-.03.04-1.11.34-1.1.36 0 .02.9-.19.89-.15-.03.03-1.52.43-1.53.46-.01.02 1.32-.28 1.3-.26 0 .03-.68.19-.68.2 0 .02.55-.08.53-.05 0 .02-1.37.35-1.4.4-.03.06.71-.13.7-.04-.01.1-1.6.6-1.6.5 0-.08.96-.32.96-.35-.02-.02-.56.06-.57.01 0-.05.36-.16.33-.18-.03-.03-.3.07-.28.01.03-.06.55-.29.54-.3 0-.02-.2.05-.17 0 .02-.06 1.13-.37 1.11-.4-.02-.04-.51.07-.56.08-.01-.03.7-.28.68-.32-.02-.04-.38.14-.4.1-.01-.06.62-.3.58-.33-.04-.04-.32.1-.36.06-.04-.04.6-.46.5-.47-.1 0-.22.13-.23.05.01-.11.5-.3.4-.38-.18-.05-.76.04-1 .18-.24.13-1.05.89-1.24 1-.2.12-.86.38-.99.44-.2.06-.23.16-.43.26-.36.1-.35.2-.53.25-.06.02-.7.31-.71.3zm-.91.38c-.11.06-.2.19-.14.24.03.07.14-.15.23-.13l.45.02c.25.01.37-.05.5-.04.15.01.45-.07.6-.07.14 0 .17.01.18-.05.02-.05-.45-.01-.66-.02-.2 0-.46.04-.62.04-.14 0-.39-.05-.54.01z" fill="#FFE400"/><path d="M9.96 11.17c0-.05-.05-.08-.1-.08s-.1.03-.1.08c0 .04.05.08.1.08s.1-.04.1-.08z" fill="#FFE400"/><path fill-rule="evenodd" clip-rule="evenodd" d="M12.25 11c.1 0 .36.08.54.12.34.12.96.06.96.12s-.04.13-.19.14a2.8 2.8 0 01-.5-.05c.02 0 .3.12.22.16-.08.03-.32-.07-.36-.05-.04.03.22.08.17.1-.03.01-.21-.03-.27-.02-.06.01.05.07-.02.1-.07.02-.18-.04-.23-.02-.05.01.1.1.03.11-.06.02-.23-.04-.32-.05-.09 0 .09.09.03.1-.06 0-.22-.07-.26-.07-.04 0 0 .1-.05.1-.06 0-.13-.09-.17-.09-.03 0 0 .11-.05.11-.06 0-.08-.11-.13-.1-.06 0 0 .14-.08.13-.07 0-.09-.14-.15-.14-.06.01.01.14-.04.14-.06 0-.07-.13-.13-.14-.06 0-.04.12-.07.12-.03 0-.07-.12-.1-.12 0 0 0 .12-.06.11-.07 0-.07-.13-.09-.12-.02 0-.02.1-.07.1-.04 0-.05-.1-.06-.08-.03 0-.1.11-.14.1-.05-.02.01-.1-.01-.1-.03 0-.08.05-.12.05-.03 0 0-.08-.01-.08s-.1.05-.14.05c-.04 0-.15.05-.18 0-.02-.05.08-.05.1-.1.02-.05-.06-.2.03-.25.07-.05.32.07.68-.01.67-.17 1.19-.37 1.24-.36z" fill="#FFE400"/></g><defs><clipPath id="clip0"><path fill="#fff" d="M0 0h20v15H0z"/></clipPath></defs></svg>