<?xml version="1.0" encoding="utf-8"?><svg width="20" height="15" fill="none" xmlns="http://www.w3.org/2000/svg" viewBox="0 0 20 15"><g clip-path="url(#bclip0)" fill-rule="evenodd" clip-rule="evenodd"><path d="M0 0h30v9.96H0V0z" fill="#B20000"/><path d="M0 9.96h30V15H0V9.96z" fill="#429F00"/><path d="M0 0h3.32v15H0V0z" fill="#fff"/><path d="M.16.25h.16v.26H.16V.25zm.47 0h.48v.26H.63V.25zM.8 0h.16v.25H.79V0zm.8 0h.15v.25h-.16V0zm.63.25h.47v.26h-.47V.25zM2.37 0h.16v.25h-.16V0zM.47.51H.8v.25H.47V.51zm.48 0h.32v.25H.95V.51zm1.1 0h.32v.25h-.31V.51zm.48 0h.32v.25h-.32V.51zM.32.76h.31v.26H.32V.76zm.79 0h.31v.26h-.31V.76zm.79 0h.32v.26H1.9V.76zm.79 0h.32v.26h-.32V.76zm.32-.5h.15V.5h-.15V.25zm-2.85.76h.31v.25H.16v-.25zm1.1 0h.32v.25h-.31v-.25zm1.59 0h.31v.25h-.31v-.25zm-2.53.76h.31v.25H.32v-.25zm.15.25H.8v.26H.47v-.26zm.64-.25h.31v.25h-.31v-.25zm-.16.25h.32v.26H.95v-.26zm-.32.26h.48v.25H.63V2.3zm.17.25h.15v.26H.79v-.26zm1.1-.76h.32v.25H1.9v-.25zm.16.25h.31v.26h-.31v-.26zm.63-.25h.32v.25h-.32v-.25zm-.16.25h.32v.26h-.32v-.26zm-.31.26h.47v.25h-.47V2.3zm.15.25h.16v.26h-.16v-.26zm-.79-.25h.16v.25h-.16v-.25zM0 2.29h.16v.25H0v-.25zm3.16 0h.16v.25h-.16v-.25zM.8 3.56h.16v.25H.79v-.25zm-.16.25h.48v.26H.63V3.8zm-.16.26h.8v.25h-.8v-.25zm1.9-.51h.16v.25h-.16v-.25zm-.15.25h.47v.26h-.47V3.8zm-.16.26h.79v.25h-.8v-.25zm.16 1.27H3v.25h-.8v-.25zM1.9 4.32H3v.26H1.9v-.26zm-1.58 0h1.1v.26H.32v-.26zM.47 5.6h.48v.26H.47V5.6zm-.15-.25h.79v.25H.3v-.25zm2.21-.5h.8v.25h-.8v-.26zm-.16.76h.48v.25h-.48V5.6z" fill="#B20000"/><path d="M.63 5.85H.8v.25H.63v-.25zm1.9 0h.16v.25h-.16v-.25zM0 4.83h.8v.26H0v-.26zm1.42.5h.48v.26h-.48v-.25zm.16.27h.16v.25h-.16V5.6zm-.47-.77h1.1v.26h-1.1v-.26zm.63-3.81h.32v.25h-.32v-.25zm-.32.25h.48v.26h-.48v-.26zm-.15.26h.31v.25h-.31v-.25zm.47 0h.32v.25h-.32v-.25zM0 1.27h.32v.26H0v-.26zm.16.26h.31v.25H.16v-.25zM3 1.27h.31v.25H3v-.25zm-.16.25h.31v.26h-.31v-.26zM0 3.81h.16v.25H0v-.25zm3.16 0h.16v.25h-.16v-.25zM1.42 5.84h.48v.26h-.48v-.26zm-.15.26h.31v.25h-.31V6.1zm.47 0h.32v.25h-.32V6.1zm-.63.25h.31v.26h-.31v-.26zm.79 0h.32v.26H1.9v-.26zm-.95.26h.32v.25H.95v-.25zm1.1 0h.32v.25h-.31v-.25zM.8 6.86h.32v.26H.79v-.26zm1.43 0h.31v.26h-.31v-.26zm-1.75.26h.48v.25H.47v-.25zm1.9 0h.48v.25h-.48v-.25zm.32-.26h.32v.26H2.7v-.26zm.16-.25h.31v.25h-.31v-.25zM3 6.35h.31v.26H3v-.26zm-2.7.51h.32v.26h-.3v-.26zm-.15-.25h.31v.25h-.3v-.25zM0 6.36h.32v.25H0v-.25zm.63 1.02H.8v.25H.63v-.25zm1.9 0h.16v.25h-.16v-.25zm-.95-.76h.16v.25h-.16v-.25zm-.47.76h.16v.25H1.1v-.25zm.95 0h.16v.25h-.16v-.25zm-.48 0h.16v.25h-.16v-.25zM0 7.38h.16v.25H0v-.25zm3.16 0h.16v.25h-.16v-.25zM1.58 3.8h.16v.26h-.16V3.8zM.8 1.27h.16v.26H.79v-.26zm1.58 0h.16v.26h-.16v-.26zm-.95 1.78h.48v.25h-.48v-.25zm-.31.25h.47v.26h-.47V3.3zm.16.26h.15v.25h-.15v-.25zm-.32-.51h.32v.25H.95v-.25zm.16-.25h.47v.25h-.47V2.8zm.16-.26h.15v.26h-.15v-.26zm.47.26h.48v.25h-.48V2.8zm.16-.26h.16v.26H1.9v-.26zm.16.51h.31v.25h-.31v-.25zm-.32.25h.48v.26h-.48V3.3zm.16.26h.16v.25H1.9v-.25zm.63-.51h.32v.25h-.32v-.25zm.16-.25h.47v.25H2.7V2.8zm.32.25h.31v.25h-.31v-.25zm-.32.25h.47v.26H2.7V3.3zm.16.26H3v.25h-.16v-.25zm0-1.02H3v.26h-.16v-.26zM0 3.04h.32v.26H0v-.25zm.16-.25h.47v.26H.16v-.26zm.31.26H.8v.25H.47v-.25zm-.31.25h.47v.26H.16V3.3z" fill="#B20000"/><path d="M.32 3.56h.15v.25H.32v-.25zm0-1.02h.15v.26H.32v-.26zM.16 4.58h.63v.25H.16v-.25zm.79 0h.63v.25H.95v-.25zm.79 0h.63v.25h-.63v-.25zm.8 0h.62v.25h-.63v-.25zm-1.27.5h.79v.26h-.8v-.25zm-1.11 0h.79v.26h-.8v-.25zm2.21 0h.8v.26h-.8v-.25zm.8 1.02h.15v.25h-.16V6.1zM0 6.1h.16v.25H0V6.1zm.16 8.65h.16v-.26H.16v.26zm.47 0h.48v-.26H.63v.26zM.8 15h.16v-.25H.79V15zm.8 0h.15v-.25h-.16V15zm.63-.25h.47v-.26h-.47v.26zm.15.25h.16v-.25h-.16V15zm-1.9-.51H.8v-.25H.47v.25zm.48 0h.32v-.25H.95v.25zm1.1 0h.32v-.25h-.31v.25zm.48 0h.32v-.25h-.32v.25zm-1.42-.25h.31v-.26h-.31v.26zm.79 0h.32v-.26H1.9v.26zm.79 0h.32v-.26H2.7v.26zm.32.5h.15v-.25h-.15v.26zm-2.85-.76h.31v-.25H.16v.25zm1.1 0h.32v-.25h-.31v.25zm1.59 0h.31v-.25h-.31v.25zm-2.53-.76h.31v-.25H.32v.25zm.15-.25H.8v-.26H.47v.26zm.64.25h.31v-.25h-.31v.25zm-.16-.25h.32v-.26H.95v.26zm-.32-.26h.48v-.25H.63v.25zm.16-.25h.16v-.25H.79v.25zm1.1.76h.33v-.25H1.9v.25zm.17-.25h.31v-.26h-.31v.26zm.63.25h.32v-.25H2.7v.25zm-.16-.25h.32v-.26h-.32v.26zm-.31-.26h.47v-.25h-.47v.25zm.15-.25h.16v-.25h-.16v.25zm-.79.25h.16v-.25h-.16v.25zm-1.58 0h.16v-.25H0v.25zm3.16 0h.16v-.25h-.16v.25zM.8 11.44h.16v-.25H.79v.25zm-.16-.25h.48v-.26H.63v.26zm-.16-.26h.8v-.25h-.8v.25zm1.9.51h.16v-.25h-.16v.25zm-.16-.25h.47v-.26h-.47v.26zm-.16-.26h.79v-.25h-.8v.25zm.16-1.27H3V9.4h-.8v.26zm-.32 1.02H3v-.26H1.9v.26zm-1.58 0h1.1v-.26H.32v.26zM.47 9.4h.48v-.26H.47v.26zm-.15.25h.79V9.4H.3v.26zm2.21.5h.8V9.9h-.8v.26zm-.16-.76h.48v-.25h-.48v.25zM0 10.17h.8V9.9H0v.26zm1.42-.51h.48V9.4h-.48v.26zm.16-.26h.16v-.25h-.16v.25zm-.47.77h1.1V9.9h-1.1v.26zm.63 3.81h.32v-.25h-.32v.25zm-.32-.25h.48v-.25h-.48v.25zm-.15-.26h.31v-.25h-.31v.25zm.47 0h.32v-.25h-.32v.25zM0 13.73h.32v-.25H0v.25zm.16-.26h.31v-.25H.16v.25zm2.85.26h.31v-.25h-.31v.25zm-.16-.26h.31v-.25h-.31v.25zM0 11.2h.16v-.25H0v.25zm3.16 0h.16v-.25h-.16v.25zm-1.9-2.3h.32v-.25h-.31v.25zm.48 0h.32v-.25h-.32v.25zm-.63-.25h.31v-.26h-.31v.26zm.79 0h.32v-.26H1.9v.26zm-.95-.26h.32v-.25H.95v.25zm1.1 0h.32v-.25h-.31v.25zM.8 8.14h.32v-.26H.79v.26zm1.43 0h.31v-.26h-.31v.26zM.47 7.88h.48v-.25H.47v.25zm1.9 0h.48v-.25h-.48v.25zm.32.26h.32v-.26h-.32v.26zm.16.25h.31v-.25h-.31v.25zm.16.26h.31v-.26h-.31v.26zM.3 8.14h.32v-.26h-.3v.26zm-.15.25h.31v-.25h-.3v.25zM0 8.64h.32V8.4H0v.25zm.63-1.02H.8v-.25H.63v.25zm.95.76h.16v-.25h-.16v.25zm0 2.8h.16v-.25h-.16v.25zM.8 13.73h.16v-.25H.79v.25zm1.58 0h.16v-.25h-.16v.25zm-.95-1.78h.48v-.25h-.48v.25zm-.31-.25h.47v-.26h-.47v.26zm.16-.26h.15v-.25h-.15v.25zm-.32.51h.32v-.25H.95v.25zm.16.25h.47v-.25h-.47v.25zm.16.26h.15v-.25h-.15v.25zm.47-.26h.48v-.25h-.48v.25zm.16.26h.16v-.25H1.9v.25zm.16-.51h.31v-.25h-.31v.25zm-.32-.25h.48v-.26h-.48v.26zm.16-.26h.16v-.25H1.9v.25zm.63.51h.32v-.25h-.32v.25zm.16.25h.47v-.25H2.7v.25zm.32-.25h.31v-.25h-.31v.25zm-.32-.25h.47v-.26H2.7v.26zm.16-.26H3v-.25h-.16v.25zm0 1.02H3v-.25h-.16v.25zM0 11.96h.32v-.26H0v.25zm.16.24h.47v-.25H.16v.25z" fill="#B20000"/><path d="M.47 11.95H.8v-.25H.47v.25zm-.31-.25h.47v-.26H.16v.26zm.16-.26h.15v-.25H.32v.25zm0 1.02h.15v-.25H.32v.25zm-.16-2.04h.63v-.25H.16v.25zm.79 0h.63v-.25H.95v.25zm.79 0h.63v-.25h-.63v.25zm.8 0h.62v-.25h-.63v.25zm-1.27-.5h.79v-.26h-.8v.25zm-1.11 0h.79v-.26h-.8v.25zm2.21 0h.8v-.26h-.8v.25zm.8-1.02h.15v-.26h-.16v.26zM0 8.9h.16v-.26H0v.26zm1.42-1.27h.16v.25h-.16v-.25zm.32 0h.16v.25h-.16v-.25zm0-.51h.16v.25h-.16v-.25zm-.32 0h.16v.25h-.16v-.25zm-1.1 6.86h.31v.26H.32v-.26zm2.21-4.83h.16V8.9h-.16v.25zm-1.9 0H.8V8.9H.63v.25zm.8-.25h.47v.25h-.48V8.9z" fill="#B20000"/></g><defs><clipPath id="bclip0"><path fill="#fff" d="M0 0h20v15H0z"/></clipPath></defs></svg>