<?xml version="1.0" encoding="utf-8"?><svg width="50" height="24.46" fill="none" xmlns="http://www.w3.org/2000/svg" viewBox="0 0 92 45"><path fill-rule="evenodd" clip-rule="evenodd" d="M48.32 19.512C48.32 8.901 53.612 0 67.83 0c14.322 0 19.513 9.004 19.513 19.512 0 10.612-5.295 19.512-19.513 19.512-14.321 0-19.512-9.003-19.512-19.512zM0 1.442C0 .93.415.514.927.514h46.845a.927.927 0 01.915 1.08l-.85 5.104a5.564 5.564 0 01-5.49 4.65H22.293v26.161a.927.927 0 01-.927.928h-8.94a.927.927 0 01-.927-.928V11.347H.928A.927.927 0 010 10.42V1.442zm27.636 13.97a.927.927 0 00-.927.928v8.077c0 .512.415.927.927.927H43.19c.59 0 1.039-.544.958-1.129a28.355 28.355 0 01-.264-3.837c0-1.582.14-2.942.264-3.837.08-.584-.368-1.129-.958-1.129H27.636zm-.927 14.472c0-.513.415-.928.927-.928h14.598A5.564 5.564 0 0147.7 33.48l.734 3.857a.928.928 0 01-.91 1.1H27.635a.927.927 0 01-.927-.927v-7.625z" fill="url(#epaint0_linear)"/><circle cx="67.892" cy="19.512" r="8.828" fill="#fff"/><path fill-rule="evenodd" clip-rule="evenodd" d="M67.677 28.338l6.718 9.933c4.878-1.235 8.197-3.91 10.253-7.439l-7.918-9.916a1.409 1.409 0 00-.103-.115 8.83 8.83 0 01-8.95 7.537z" fill="#684DA3"/><path d="M67.78 28.34s2.397-.91 5.072-3.318c2.674-2.408 3.83-4.696 3.83-4.696l15 16.66-7.043 1.127L82.78 45l-15-16.66z" fill="#FF9E0D"/><defs><linearGradient id="epaint0_linear" x1="82.988" y1="3.134" x2="-.86" y2="39.783" gradientUnits="userSpaceOnUse"><stop stop-color="#2CA9DE"/><stop offset="1" stop-color="#1EBDE0"/></linearGradient></defs></svg>