<svg xmlns="http://www.w3.org/2000/svg" viewBox="0 0 64 64" width="512" height="512"><path d="M24 60a3 3 0 1 0-3-3 3 3 0 0 0 3 3zm0-4a1 1 0 1 1-1 1 1 1 0 0 1 1-1zM13 10H6a1 1 0 0 0 0 2h7a1 1 0 0 0 0-2zm4 0h-1a1 1 0 0 0 0 2h1a1 1 0 0 0 0-2zm40-6H45.578A4.984 4.984 0 0 0 41 1H7a5.006 5.006 0 0 0-5 5v52a5.006 5.006 0 0 0 5 5h34a5.006 5.006 0 0 0 5-5v-6h11a5.006 5.006 0 0 0 5-5V9a5.006 5.006 0 0 0-5-5zM4 9h30v38a4.982 4.982 0 0 0 2.031 4H4zm32 2h24v29H36zm24-2H36a3 3 0 0 1 3-3h18a3 3 0 0 1 3 3zM4 6a3 3 0 0 1 3-3h34a2.992 2.992 0 0 1 2.233 1H39a5 5 0 0 0-4.576 3H4zm40 52a3 3 0 0 1-3 3H7a3 3 0 0 1-3-3v-5h40zm16-11a3 3 0 0 1-3 3H39a3 3 0 0 1-3-3v-5h24zm-12 2a3 3 0 1 0-3-3 3 3 0 0 0 3 3zm0-4a1 1 0 1 1-1 1 1 1 0 0 1 1-1z"/></svg>